<svg width="142" height="25" viewBox="0 0 142 25" fill="none" xmlns="http://www.w3.org/2000/svg">
<path d="M38.8042 19.6401C37.5611 19.6401 36.4597 19.4198 35.4999 18.9792C34.54 18.5387 33.7848 17.8935 33.234 17.0438C32.699 16.1784 32.4315 15.132 32.4315 13.9047V13.3147H34.957V13.9047C34.957 15.0691 35.3032 15.9424 35.9955 16.5246C36.7036 17.1068 37.6398 17.3979 38.8042 17.3979C39.9843 17.3979 40.8733 17.154 41.4713 16.6662C42.0692 16.1627 42.3682 15.5175 42.3682 14.7308C42.3682 14.2115 42.2266 13.7867 41.9433 13.4563C41.6601 13.1258 41.2589 12.8662 40.7396 12.6774C40.2203 12.4728 39.5988 12.284 38.875 12.1109L38.0017 11.8985C36.9475 11.6467 36.027 11.3399 35.2402 10.978C34.4692 10.6004 33.8713 10.1047 33.4465 9.49106C33.0216 8.8774 32.8092 8.09065 32.8092 7.13082C32.8092 6.15526 33.0452 5.3213 33.5173 4.62896C34.005 3.93663 34.6738 3.40164 35.5235 3.024C36.3731 2.64636 37.3723 2.45754 38.521 2.45754C39.6696 2.45754 40.6924 2.65423 41.5893 3.0476C42.5019 3.44098 43.2179 4.02317 43.7371 4.79418C44.2564 5.56519 44.516 6.53289 44.516 7.69728V8.54697H41.9905V7.69728C41.9905 6.98921 41.841 6.41488 41.5421 5.9743C41.2589 5.53372 40.8576 5.21116 40.3384 5.0066C39.8191 4.80205 39.2133 4.69977 38.521 4.69977C37.5139 4.69977 36.7272 4.91219 36.1607 5.33704C35.61 5.74615 35.3346 6.32047 35.3346 7.06001C35.3346 7.56353 35.4527 7.98051 35.6887 8.31094C35.9404 8.62564 36.3023 8.88527 36.7744 9.08982C37.2464 9.29438 37.8365 9.47533 38.5446 9.63268L39.4179 9.8451C40.4878 10.0811 41.4319 10.388 42.2502 10.7656C43.0684 11.1275 43.7135 11.6231 44.1856 12.2525C44.6576 12.8819 44.8936 13.6923 44.8936 14.6836C44.8936 15.6749 44.6419 16.5403 44.1383 17.2799C43.6506 18.0194 42.9504 18.6016 42.0377 19.0264C41.1251 19.4355 40.0473 19.6401 38.8042 19.6401Z" fill="white"/>
<path d="M47.6404 24.7686V7.67368H50.0242V9.34945H50.4018C50.7008 8.8302 51.1493 8.36601 51.7472 7.95691C52.3608 7.5478 53.2341 7.34324 54.367 7.34324C55.3426 7.34324 56.2316 7.57927 57.0341 8.05132C57.8523 8.52336 58.5053 9.20783 58.9931 10.1047C59.4966 10.9859 59.7484 12.0559 59.7484 13.3147V13.6687C59.7484 14.9275 59.5045 16.0053 59.0167 16.9022C58.5289 17.7834 57.8759 18.46 57.0577 18.932C56.2395 19.4041 55.3426 19.6401 54.367 19.6401C53.6118 19.6401 52.9745 19.5457 52.4552 19.3569C51.936 19.1681 51.519 18.932 51.2043 18.6488C50.8896 18.3498 50.6379 18.043 50.449 17.7283H50.0714V23.341L47.6404 24.7686ZM53.659 17.5159C54.7289 17.5159 55.6022 17.1776 56.2788 16.501C56.9554 15.8244 57.2937 14.8567 57.2937 13.5979V13.3855C57.2937 12.1424 56.9476 11.1826 56.2552 10.506C55.5786 9.82936 54.7132 9.49106 53.659 9.49106C52.6205 9.49106 51.755 9.82936 51.0627 10.506C50.3861 11.1826 50.0478 12.1424 50.0478 13.3855V13.5979C50.0478 14.8567 50.3861 15.8244 51.0627 16.501C51.755 17.1776 52.6205 17.5159 53.659 17.5159Z" fill="white"/>
<path d="M68.0948 19.6401C66.9147 19.6401 65.884 19.3962 65.0029 18.9084C64.1217 18.4049 63.4294 17.7047 62.9259 16.8078C62.4381 15.8952 62.1942 14.8409 62.1942 13.6451V13.3619C62.1942 12.1503 62.4381 11.096 62.9259 10.1991C63.4136 9.28651 64.0902 8.5863 64.9557 8.09852C65.8368 7.595 66.8517 7.34324 68.0004 7.34324C69.1176 7.34324 70.0931 7.595 70.9271 8.09852C71.7768 8.5863 72.4376 9.27077 72.9097 10.1519C73.3817 11.0331 73.6178 12.0637 73.6178 13.2438V14.1643H64.6724C64.7039 15.1871 65.0422 16.0053 65.6873 16.619C66.3482 17.2169 67.1664 17.5159 68.142 17.5159C69.0546 17.5159 69.7391 17.3113 70.1954 16.9022C70.6675 16.4931 71.0294 16.0211 71.2811 15.4861L73.2873 16.5246C73.067 16.9652 72.7445 17.4293 72.3196 17.9171C71.9105 18.4049 71.3677 18.814 70.6911 19.1445C70.0145 19.4749 69.149 19.6401 68.0948 19.6401ZM64.696 12.2998H71.1395C71.0766 11.4186 70.7619 10.7341 70.1954 10.2463C69.629 9.74282 68.8894 9.49106 67.9768 9.49106C67.0641 9.49106 66.3167 9.74282 65.7346 10.2463C65.1681 10.7341 64.8219 11.4186 64.696 12.2998Z" fill="white"/>
<path d="M81.949 19.6401C80.8319 19.6401 79.817 19.4041 78.9043 18.932C78.0074 18.46 77.2915 17.7755 76.7565 16.8786C76.2373 15.9817 75.9776 14.9039 75.9776 13.6451V13.3383C75.9776 12.0795 76.2373 11.0095 76.7565 10.1283C77.2915 9.23144 78.0074 8.54697 78.9043 8.07492C79.817 7.58714 80.8319 7.34324 81.949 7.34324C83.0662 7.34324 84.0182 7.5478 84.8049 7.95691C85.5917 8.36601 86.2211 8.90887 86.6931 9.58547C87.1809 10.2621 87.4956 11.0095 87.6372 11.8277L85.277 12.3234C85.1983 11.8041 85.0331 11.3321 84.7813 10.9072C84.5296 10.4824 84.1755 10.1441 83.7192 9.8923C83.2629 9.64054 82.6886 9.51467 81.9963 9.51467C81.3196 9.51467 80.706 9.67201 80.1553 9.98671C79.6203 10.2857 79.1954 10.7263 78.8807 11.3084C78.566 11.8749 78.4087 12.5672 78.4087 13.3855V13.5979C78.4087 14.4161 78.566 15.1163 78.8807 15.6985C79.1954 16.2807 79.6203 16.7213 80.1553 17.0202C80.706 17.3192 81.3196 17.4687 81.9963 17.4687C83.019 17.4687 83.7979 17.2091 84.3329 16.6898C84.8679 16.1548 85.2062 15.4782 85.3478 14.66L87.708 15.2028C87.5192 16.0053 87.1809 16.7449 86.6931 17.4215C86.2211 18.0981 85.5917 18.6409 84.8049 19.05C84.0182 19.4434 83.0662 19.6401 81.949 19.6401Z" fill="white"/>
<path d="M94.4404 19.3097C93.7324 19.3097 93.1659 19.0972 92.7411 18.6724C92.3319 18.2476 92.1274 17.6811 92.1274 16.973V9.72709H88.9175V7.67368H92.1274V4.48991L94.5584 3.08808V7.67368H98.028V9.72709H94.5584V16.5482C94.5584 17.0202 94.7787 17.2563 95.2193 17.2563H97.6504V19.3097H94.4404Z" fill="white"/>
<path d="M100.884 19.3097V7.67368H103.268V9.04262H103.646C103.834 8.55483 104.133 8.2008 104.542 7.98051C104.967 7.74448 105.487 7.62647 106.1 7.62647H107.493V9.8215H106.006C105.219 9.8215 104.574 10.0418 104.07 10.4824C103.567 10.9072 103.315 11.5681 103.315 12.465V19.3097H100.884Z" fill="white"/>
<path d="M114.472 19.5221C113.591 19.5221 112.805 19.3254 112.112 18.932C111.42 18.5387 110.877 17.9801 110.484 17.2563C110.09 16.5325 109.894 15.667 109.894 14.66V7.67368H112.325V14.4948C112.325 15.5018 112.576 16.2492 113.08 16.737C113.583 17.2091 114.284 17.4451 115.18 17.4451C116.172 17.4451 116.966 17.1146 117.564 16.4538C118.178 15.7772 118.485 14.8095 118.485 13.5507V7.67368H120.916V19.3097H118.532V17.5631H118.154C117.934 18.0351 117.541 18.4836 116.974 18.9084C116.408 19.3175 115.574 19.5221 114.472 19.5221Z" fill="white"/>
<path d="M124.51 19.3097V7.67368H126.893V9.04262H127.271C127.491 8.63351 127.845 8.27161 128.333 7.95691C128.821 7.64221 129.482 7.48486 130.316 7.48486C131.181 7.48486 131.873 7.66581 132.393 8.02771C132.928 8.37388 133.329 8.82233 133.596 9.37305H133.974C134.242 8.83806 134.627 8.38962 135.131 8.02771C135.65 7.66581 136.382 7.48486 137.326 7.48486C138.081 7.48486 138.75 7.64221 139.332 7.95691C139.914 8.25587 140.378 8.71218 140.724 9.32585C141.071 9.92377 141.244 10.6712 141.244 11.5681V19.3097H138.813V11.7569C138.813 11.0488 138.616 10.506 138.223 10.1283C137.845 9.73495 137.302 9.53827 136.594 9.53827C135.839 9.53827 135.233 9.78216 134.777 10.2699C134.32 10.7577 134.092 11.4579 134.092 12.3706V19.3097H131.661V11.7569C131.661 11.0488 131.464 10.506 131.071 10.1283C130.693 9.73495 130.151 9.53827 129.442 9.53827C128.687 9.53827 128.081 9.78216 127.625 10.2699C127.169 10.7577 126.941 11.4579 126.941 12.3706V19.3097H124.51Z" fill="white"/>
<path d="M1.92459 21.9842L1.53065e-06 20.4745L0 2.31589L1.92459 0.806251L1.92459 21.9842Z" fill="white"/>
<path d="M10.8971 22.0199L6.41013 20.5034L6.41013 2.28499L10.8971 0.768555L10.8971 22.0199Z" fill="white"/>
<path d="M21.2505 22.0199L12.8231 20.5697L12.8231 2.28499L21.2505 0.768555L21.2505 22.0199Z" fill="white"/>
</svg>
