<svg width="118" height="20" viewBox="0 0 118 20" fill="none" xmlns="http://www.w3.org/2000/svg">
<path d="M32.3368 15.7263C31.301 15.7263 30.3831 15.5427 29.5832 15.1756C28.7834 14.8084 28.154 14.2708 27.695 13.5627C27.2492 12.8415 27.0263 11.9696 27.0263 10.9468V10.4551H29.1308V10.9468C29.1308 11.9171 29.4193 12.6449 29.9963 13.13C30.5863 13.6152 31.3665 13.8578 32.3368 13.8578C33.3203 13.8578 34.0611 13.6545 34.5594 13.248C35.0577 12.8284 35.3068 12.2908 35.3068 11.6352C35.3068 11.2025 35.1888 10.8485 34.9528 10.5731C34.7167 10.2977 34.3824 10.0814 33.9497 9.92403C33.517 9.75357 32.999 9.59622 32.3958 9.45198L31.6681 9.27496C30.7896 9.06516 30.0225 8.80947 29.3669 8.50788C28.7244 8.19318 28.2261 7.78014 27.872 7.26876C27.518 6.75737 27.341 6.10175 27.341 5.30189C27.341 4.48892 27.5377 3.79396 27.9311 3.21701C28.3375 2.64006 28.8948 2.19424 29.6029 1.87954C30.311 1.56484 31.1436 1.40749 32.1008 1.40749C33.058 1.40749 33.9103 1.5714 34.6577 1.89921C35.4183 2.22702 36.0149 2.71218 36.4476 3.35469C36.8803 3.9972 37.0967 4.80362 37.0967 5.77394V6.48201H34.9921V5.77394C34.9921 5.18388 34.8675 4.70527 34.6184 4.33812C34.3824 3.97097 34.048 3.70217 33.6153 3.53171C33.1826 3.36125 32.6778 3.27602 32.1008 3.27602C31.2616 3.27602 30.606 3.45303 30.1339 3.80707C29.675 4.14799 29.4455 4.6266 29.4455 5.24288C29.4455 5.66248 29.5439 6.00996 29.7406 6.28532C29.9504 6.54757 30.252 6.76393 30.6453 6.93439C31.0387 7.10485 31.5304 7.25564 32.1205 7.38677L32.8482 7.56379C33.7399 7.76047 34.5266 8.01617 35.2085 8.33086C35.8903 8.63245 36.4279 9.04549 36.8213 9.56999C37.2147 10.0945 37.4114 10.7698 37.4114 11.5959C37.4114 12.422 37.2016 13.1431 36.782 13.7594C36.3755 14.3757 35.792 14.8609 35.0314 15.2149C34.2709 15.5558 33.3727 15.7263 32.3368 15.7263Z" fill="white"/>
<path d="M39.7003 20V5.75427H41.6868V7.15075H42.0015C42.2507 6.71803 42.6244 6.33122 43.1226 5.99029C43.634 5.64937 44.3618 5.47891 45.3059 5.47891C46.1188 5.47891 46.8597 5.67559 47.5284 6.06897C48.2103 6.46234 48.7544 7.03273 49.1609 7.78014C49.5805 8.51444 49.7903 9.40609 49.7903 10.4551V10.7501C49.7903 11.7991 49.5871 12.6973 49.1806 13.4447C48.7741 14.179 48.2299 14.7429 47.5481 15.1362C46.8662 15.5296 46.1188 15.7263 45.3059 15.7263C44.6765 15.7263 44.1454 15.6476 43.7127 15.4903C43.28 15.3329 42.9325 15.1362 42.6703 14.9002C42.408 14.6511 42.1982 14.3954 42.0409 14.1331H41.7262V18.8104L39.7003 20ZM44.7158 13.9561C45.6075 13.9561 46.3352 13.6742 46.899 13.1104C47.4629 12.5465 47.7448 11.7401 47.7448 10.6911V10.5141C47.7448 9.47821 47.4563 8.67835 46.8794 8.11451C46.3155 7.55067 45.5943 7.26876 44.7158 7.26876C43.8504 7.26876 43.1292 7.55067 42.5523 8.11451C41.9884 8.67835 41.7065 9.47821 41.7065 10.5141V10.6911C41.7065 11.7401 41.9884 12.5465 42.5523 13.1104C43.1292 13.6742 43.8504 13.9561 44.7158 13.9561Z" fill="white"/>
<path d="M56.7457 15.7263C55.7622 15.7263 54.9034 15.523 54.1691 15.1166C53.4348 14.697 52.8578 14.1135 52.4382 13.366C52.0317 12.6055 51.8285 11.727 51.8285 10.7304V10.4944C51.8285 9.48476 52.0317 8.60623 52.4382 7.85882C52.8447 7.09829 53.4085 6.51479 54.1297 6.1083C54.864 5.68871 55.7098 5.47891 56.667 5.47891C57.598 5.47891 58.4109 5.68871 59.1059 6.1083C59.814 6.51479 60.3647 7.08518 60.7581 7.81948C61.1514 8.55378 61.3481 9.41264 61.3481 10.3961V11.1632H53.8937C53.9199 12.0155 54.2018 12.6973 54.7395 13.2087C55.2902 13.707 55.972 13.9561 56.785 13.9561C57.5455 13.9561 58.1159 13.7856 58.4962 13.4447C58.8895 13.1038 59.1911 12.7104 59.4009 12.2646L61.0728 13.13C60.8892 13.4972 60.6204 13.884 60.2664 14.2905C59.9254 14.697 59.4731 15.0379 58.9092 15.3132C58.3454 15.5886 57.6242 15.7263 56.7457 15.7263ZM53.9134 9.60933H59.2829C59.2305 8.87503 58.9682 8.30464 58.4962 7.89816C58.0241 7.47856 57.4078 7.26876 56.6473 7.26876C55.8868 7.26876 55.264 7.47856 54.7788 7.89816C54.3067 8.30464 54.0183 8.87503 53.9134 9.60933Z" fill="white"/>
<path d="M68.2909 15.7263C67.3599 15.7263 66.5141 15.5296 65.7536 15.1362C65.0062 14.7429 64.4096 14.1725 63.9638 13.4251C63.531 12.6776 63.3147 11.7794 63.3147 10.7304V10.4748C63.3147 9.42576 63.531 8.53411 63.9638 7.79981C64.4096 7.0524 65.0062 6.48201 65.7536 6.08864C66.5141 5.68215 67.3599 5.47891 68.2909 5.47891C69.2218 5.47891 70.0152 5.64937 70.6708 5.99029C71.3264 6.33122 71.8509 6.7836 72.2443 7.34743C72.6508 7.91127 72.913 8.53411 73.031 9.21596L71.0642 9.629C70.9986 9.19629 70.8609 8.80291 70.6511 8.44888C70.4413 8.09484 70.1463 7.81292 69.766 7.60313C69.3858 7.39333 68.9072 7.28843 68.3302 7.28843C67.7664 7.28843 67.255 7.41955 66.7961 7.6818C66.3502 7.93094 65.9962 8.29809 65.7339 8.78325C65.4717 9.25529 65.3406 9.83224 65.3406 10.5141V10.6911C65.3406 11.373 65.4717 11.9565 65.7339 12.4416C65.9962 12.9268 66.3502 13.2939 66.7961 13.5431C67.255 13.7922 67.7664 13.9168 68.3302 13.9168C69.1825 13.9168 69.8316 13.7004 70.2774 13.2677C70.7232 12.8219 71.0051 12.258 71.1232 11.5762L73.09 12.0286C72.9327 12.6973 72.6508 13.3136 72.2443 13.8774C71.8509 14.4413 71.3264 14.8936 70.6708 15.2346C70.0152 15.5624 69.2218 15.7263 68.2909 15.7263Z" fill="white"/>
<path d="M78.7004 15.4509C78.1103 15.4509 77.6383 15.2739 77.2842 14.9199C76.9433 14.5658 76.7728 14.0938 76.7728 13.5037V7.46544H74.0979V5.75427H76.7728V3.10113L78.7987 1.93294V5.75427H81.69V7.46544H78.7987V13.1497C78.7987 13.5431 78.9823 13.7398 79.3494 13.7398H81.3753V15.4509H78.7004Z" fill="white"/>
<path d="M84.0701 15.4509V5.75427H86.0566V6.89505H86.3713C86.5286 6.48857 86.7778 6.19354 87.1187 6.00996C87.4727 5.81327 87.9055 5.71493 88.4168 5.71493H89.5773V7.54412H88.3382C87.6825 7.54412 87.1449 7.72769 86.7253 8.09484C86.3057 8.44888 86.0959 8.9996 86.0959 9.74701V15.4509H84.0701Z" fill="white"/>
<path d="M95.3937 15.6279C94.6594 15.6279 94.0038 15.464 93.4268 15.1362C92.8499 14.8084 92.3975 14.3429 92.0697 13.7398C91.7419 13.1366 91.578 12.4154 91.578 11.5762V5.75427H93.6038V11.4385C93.6038 12.2777 93.8136 12.9006 94.2332 13.307C94.6528 13.7004 95.2363 13.8971 95.9837 13.8971C96.8098 13.8971 97.472 13.6217 97.9703 13.071C98.4817 12.5072 98.7374 11.7008 98.7374 10.6518V5.75427H100.763V15.4509H98.7767V13.9954H98.462C98.2784 14.3888 97.9506 14.7625 97.4786 15.1166C97.0065 15.4575 96.3116 15.6279 95.3937 15.6279Z" fill="white"/>
<path d="M103.758 15.4509V5.75427H105.744V6.89505H106.059C106.243 6.55413 106.538 6.25254 106.944 5.99029C107.351 5.72804 107.901 5.59692 108.596 5.59692C109.318 5.59692 109.895 5.74771 110.327 6.0493C110.773 6.33777 111.107 6.71148 111.33 7.17041H111.645C111.868 6.72459 112.189 6.35089 112.609 6.0493C113.042 5.74771 113.651 5.59692 114.438 5.59692C115.067 5.59692 115.625 5.72804 116.11 5.99029C116.595 6.23943 116.982 6.61969 117.27 7.13108C117.559 7.62935 117.703 8.25219 117.703 8.9996V15.4509H115.677V9.15695C115.677 8.56689 115.513 8.11451 115.185 7.79981C114.871 7.472 114.418 7.30809 113.828 7.30809C113.199 7.30809 112.694 7.51134 112.314 7.91782C111.934 8.32431 111.743 8.90781 111.743 9.66834V15.4509H109.718V9.15695C109.718 8.56689 109.554 8.11451 109.226 7.79981C108.911 7.472 108.459 7.30809 107.869 7.30809C107.239 7.30809 106.734 7.51134 106.354 7.91782C105.974 8.32431 105.784 8.90781 105.784 9.66834V15.4509H103.758Z" fill="white"/>
<path d="M1.60383 17.6797L1.27554e-06 16.4216L0 1.28945L1.60382 0.0314135L1.60383 17.6797Z" fill="white"/>
<path d="M9.08094 17.7095L5.34178 16.4457L5.34177 1.2637L9.08094 0L9.08094 17.7095Z" fill="white"/>
<path d="M17.7088 17.7095L10.6859 16.5009L10.6859 1.2637L17.7088 0L17.7088 17.7095Z" fill="white"/>
</svg>
