<svg width="22" height="21" viewBox="0 0 22 21" fill="none" xmlns="http://www.w3.org/2000/svg">
<circle cx="10.9008" cy="10.4916" r="10.35" fill="#FF5135"/>
<path d="M18.4023 10.265L16.365 5.34648C16.305 5.20164 16.19 5.08657 16.0451 5.02657L11.1266 2.9893C10.9817 2.92935 10.819 2.92935 10.6742 2.9893L5.75576 5.02657C5.61093 5.08657 5.49585 5.20164 5.43585 5.34648L3.39858 10.265C3.36883 10.3367 3.35352 10.4136 3.35352 10.4912C3.35352 10.5689 3.36883 10.6457 3.39858 10.7174L5.43585 15.6358C5.49585 15.7807 5.61093 15.8957 5.75576 15.9557L10.6742 17.993C10.7459 18.0228 10.8227 18.0381 10.9004 18.0381C10.978 18.0381 11.0549 18.0228 11.1266 17.993L16.0451 15.9557C16.19 15.8957 16.305 15.7807 16.365 15.6358L18.4023 10.7174C18.4623 10.5726 18.4623 10.4099 18.4023 10.265ZM13.343 8.5527H10.4834L12.256 10.409L10.4212 12.4296H13.3422V13.787H8.45843V12.5532L10.3803 10.4258L8.46765 8.43264V7.1955H13.3423L13.343 8.5527Z" fill="white"/>
</svg>
