<svg width="48" height="49" viewBox="0 0 48 49" fill="none" xmlns="http://www.w3.org/2000/svg">
<g clip-path="url(#clip0_5945_18530)">
<path d="M34 24.7686C34 27.4207 32.9464 29.9643 31.0711 31.8396C29.1957 33.715 26.6522 34.7686 24 34.7686C21.3478 34.7686 18.8043 33.715 16.9289 31.8396C15.0536 29.9643 14 27.4207 14 24.7686C14 22.1164 15.0536 19.5729 16.9289 17.6975C18.8043 15.8221 21.3478 14.7686 24 14.7686C26.6522 14.7686 29.1957 15.8221 31.0711 17.6975C32.9464 19.5729 34 22.1164 34 24.7686ZM24.3587 22.1511C23.3862 22.5561 21.4412 23.3936 18.5262 24.6636C18.0538 24.8511 17.805 25.0361 17.7825 25.2161C17.745 25.5198 18.1263 25.6398 18.645 25.8036L18.8637 25.8723C19.3738 26.0386 20.0612 26.2323 20.4175 26.2398C20.7425 26.2473 21.1037 26.1148 21.5025 25.8398C24.2262 24.0011 25.6325 23.0723 25.72 23.0523C25.7825 23.0373 25.87 23.0198 25.9275 23.0723C25.9862 23.1236 25.98 23.2223 25.9738 23.2486C25.9363 23.4098 24.44 24.7998 23.6663 25.5198C23.425 25.7448 23.2537 25.9036 23.2188 25.9398C23.1417 26.0186 23.0633 26.0961 22.9837 26.1723C22.5087 26.6298 22.1538 26.9723 23.0025 27.5323C23.4113 27.8023 23.7388 28.0236 24.065 28.2461C24.42 28.4886 24.775 28.7298 25.235 29.0323C25.3512 29.1073 25.4638 29.1886 25.5725 29.2661C25.9863 29.5611 26.36 29.8261 26.8188 29.7836C27.0863 29.7586 27.3625 29.5086 27.5025 28.7586C27.8337 26.9873 28.485 23.1511 28.635 21.5698C28.6442 21.4384 28.6387 21.3063 28.6187 21.1761C28.607 21.071 28.5561 20.9741 28.4763 20.9048C28.3625 20.8263 28.2269 20.7856 28.0887 20.7886C27.7137 20.7948 27.135 20.9961 24.3587 22.1511Z" fill="white"/>
</g>
<rect x="1" y="1.76855" width="46" height="46" rx="23" stroke="white" stroke-opacity="0.2" stroke-width="2"/>
<defs>
<clipPath id="clip0_5945_18530">
<rect width="20" height="20" fill="white" transform="translate(14 14.7686)"/>
</clipPath>
</defs>
</svg>
