<svg width="48" height="49" viewBox="0 0 48 49" fill="none" xmlns="http://www.w3.org/2000/svg">
<g clip-path="url(#clip0_5945_18533)">
<path d="M25.2812 24.7686C25.2812 27.8748 22.7563 30.3936 19.64 30.3936C18.9003 30.3945 18.1677 30.2498 17.484 29.9677C16.8002 29.6855 16.1787 29.2715 15.655 28.7491C15.1313 28.2268 14.7156 27.6064 14.4316 26.9235C14.1476 26.2405 14.001 25.5082 14 24.7686C14 21.6611 16.525 19.1436 19.64 19.1436C20.3798 19.1424 21.1125 19.287 21.7964 19.5691C22.4803 19.8512 23.1019 20.2652 23.6258 20.7875C24.1496 21.3099 24.5655 21.9303 24.8495 22.6134C25.1336 23.2964 25.2803 24.0288 25.2812 24.7686ZM31.4688 24.7686C31.4688 27.6936 30.2062 30.0636 28.6488 30.0636C27.0912 30.0636 25.8288 27.6923 25.8288 24.7686C25.8288 21.8436 27.0912 19.4736 28.6488 19.4736C30.2062 19.4736 31.4688 21.8448 31.4688 24.7686ZM34 24.7686C34 27.3886 33.5562 29.5123 33.0075 29.5123C32.46 29.5123 32.0163 27.3873 32.0163 24.7686C32.0163 22.1486 32.46 20.0248 33.0087 20.0248C33.5562 20.0248 34 22.1486 34 24.7686Z" fill="white"/>
</g>
<rect x="1" y="1.76855" width="46" height="46" rx="23" stroke="white" stroke-opacity="0.2" stroke-width="2"/>
<defs>
<clipPath id="clip0_5945_18533">
<rect width="20" height="20" fill="white" transform="translate(14 14.7686)"/>
</clipPath>
</defs>
</svg>
