<svg width="161" height="61" viewBox="0 0 161 61" fill="none" xmlns="http://www.w3.org/2000/svg">
<path fill-rule="evenodd" clip-rule="evenodd" d="M89.5049 37.4407C89.5049 38.0381 89.3116 38.2489 88.6967 38.2489H85.9998C85.4024 38.2489 85.1916 38.0556 85.1916 37.467L85.2355 30.9663L81.0276 35.5344C80.6235 35.9824 80.3687 35.9824 79.9646 35.5344L75.7567 30.9927L75.7743 37.467C75.7743 38.0644 75.5635 38.2489 74.9661 38.2489H72.357C71.7597 38.2489 71.5488 38.0381 71.5488 37.4407V26.9692C71.5488 26.3719 71.6982 26.0381 72.1462 25.6076L73.6572 24.1845C74.1052 23.7628 74.4039 23.7804 74.8256 24.2284L80.5181 30.0703L86.2282 24.2284C86.6762 23.7804 86.9485 23.7804 87.379 24.1845L88.9251 25.6515C89.3468 26.0556 89.4961 26.4158 89.4961 27.0132V37.4407H89.5049Z" fill="white"/>
<path fill-rule="evenodd" clip-rule="evenodd" d="M93.8184 25.441C93.8184 24.8436 94.0116 24.6328 94.6266 24.6328H104.799C105.397 24.6328 105.608 24.8261 105.608 25.441V27.3737C105.608 27.971 105.414 28.1819 104.826 28.1819L97.9911 28.1379V29.5435L104 29.5259C104.597 29.5259 104.782 29.7368 104.782 30.3341V32.4776C104.782 33.075 104.588 33.2858 104 33.2858L97.9911 33.2419V34.7265L104.914 34.7089C105.511 34.7089 105.695 34.9198 105.695 35.5171V37.4322C105.695 38.0296 105.485 38.2404 104.887 38.2404H94.6266C94.0292 38.2404 93.8184 38.0296 93.8184 37.4322V25.441Z" fill="white"/>
<path fill-rule="evenodd" clip-rule="evenodd" d="M120.603 34.0413C121.2 34.0413 121.385 34.2346 121.385 34.8495V37.4146C121.385 38.012 121.192 38.2228 120.577 38.2228H110.58C109.982 38.2228 109.771 38.012 109.771 37.4146V25.4234C109.771 24.8261 109.982 24.6152 110.58 24.6152H113.364C113.962 24.6152 114.173 24.8085 114.173 25.3971L114.155 34.0589L120.603 34.0413Z" fill="white"/>
<path fill-rule="evenodd" clip-rule="evenodd" d="M129.121 34.1662H134.532L135.551 33.1296V29.7739L134.488 28.6933H129.121V34.1662ZM125.554 38.2248C124.957 38.2248 124.746 38.014 124.746 37.4166V25.443C124.746 24.8456 124.957 24.6348 125.554 24.6348H135.876C136.474 24.6348 136.808 24.7665 137.238 25.1882L139.733 27.7094C140.155 28.1311 140.286 28.4737 140.286 29.0711V33.8061C140.286 34.4034 140.137 34.7636 139.715 35.1853L137.256 37.645C136.834 38.0667 136.474 38.216 135.876 38.216L125.554 38.2248Z" fill="white"/>
<path fill-rule="evenodd" clip-rule="evenodd" d="M41.4439 9.90039C29.9447 9.90039 20.6328 19.2122 20.6328 30.7115C20.6328 42.202 29.9447 51.5226 41.4439 51.5226C52.9432 51.5226 62.2551 42.2108 62.2551 30.7115C62.2463 19.2122 52.9344 9.90039 41.4439 9.90039Z" fill="url(#paint0_linear_2761_38841)"/>
<path d="M41.4429 9.76855C29.8734 9.76855 20.5 19.1419 20.5 30.7115C20.5 42.2722 29.8734 51.6456 41.4429 51.6456C53.0124 51.6456 62.377 42.2722 62.377 30.7115C62.377 19.1419 53.0037 9.76855 41.4429 9.76855ZM41.4429 10.0321C52.8631 10.0321 62.1223 19.2912 62.1223 30.7115C62.1223 42.1317 52.8631 51.3908 41.4429 51.3908C30.0227 51.3908 20.7635 42.1229 20.7635 30.7115C20.7635 19.2912 30.0227 10.0321 41.4429 10.0321Z" fill="url(#paint1_linear_2761_38841)"/>
<path fill-rule="evenodd" clip-rule="evenodd" d="M50.5615 28.4179L48.2423 21.5395C47.9963 20.8279 47.3287 20.3447 46.5732 20.3359H46.5644C45.8089 20.3359 45.1413 20.8103 44.8953 21.5307L41.4341 31.5892L37.9729 21.5307C37.7269 20.8191 37.0593 20.3359 36.3038 20.3359H36.295C35.5395 20.3359 34.8719 20.8191 34.6259 21.5395L32.3067 28.4179H28.2306C27.2555 28.4179 26.4648 29.2086 26.4648 30.1837C26.4648 31.1588 27.2555 31.9494 28.2306 31.9494H31.1208L29.5044 36.7459C29.1969 37.6683 29.6889 38.6698 30.6113 38.986C30.7957 39.0475 30.989 39.0826 31.1735 39.0826C31.9114 39.0826 32.5966 38.6171 32.8426 37.8791L36.3214 27.5922L39.765 37.6068C40.011 38.3184 40.6786 38.8015 41.4341 38.8015C42.1896 38.8015 42.8572 38.3272 43.1032 37.6068L46.5468 27.5922L50.0256 37.8879C50.3331 38.8103 51.3345 39.311 52.2657 38.9948C53.1881 38.6873 53.6889 37.6859 53.3726 36.7547L51.7562 31.9582H54.6464C55.6215 31.9582 56.4121 31.1676 56.4121 30.1925C56.4121 29.2173 55.6215 28.4267 54.6464 28.4267L50.5615 28.4179Z" fill="white"/>
<path fill-rule="evenodd" clip-rule="evenodd" d="M34.5906 21.6895C34.5906 21.6895 34.5906 21.707 34.5643 21.83C34.5467 21.9266 34.5379 22.0233 34.5379 22.1287C34.5379 22.3044 34.5555 22.4625 34.5994 22.6206L36.3915 27.7861L34.2656 34.199L32.1484 28.4362L34.371 21.953L34.4237 22.1111L34.5906 21.6895Z" fill="url(#paint2_linear_2761_38841)"/>
<path fill-rule="evenodd" clip-rule="evenodd" d="M44.8328 21.6895C44.8328 21.6895 44.8328 21.707 44.8064 21.83C44.7889 21.9266 44.7801 22.0233 44.7801 22.1287C44.7801 22.3132 44.8064 22.4889 44.8591 22.6558L46.6337 27.8124L44.5078 34.199L42.3906 28.4362L44.6132 21.953L44.6659 22.1111L44.8328 21.6895Z" fill="url(#paint3_linear_2761_38841)"/>
<defs>
<linearGradient id="paint0_linear_2761_38841" x1="24.2013" y1="40.8963" x2="58.8241" y2="20.4555" gradientUnits="userSpaceOnUse">
<stop stop-color="#C93554"/>
<stop offset="1" stop-color="#DA374A"/>
</linearGradient>
<linearGradient id="paint1_linear_2761_38841" x1="58.7105" y1="20.3268" x2="23.9269" y2="41.232" gradientUnits="userSpaceOnUse">
<stop stop-color="#DA3740"/>
<stop offset="1" stop-color="#DA3743"/>
</linearGradient>
<linearGradient id="paint2_linear_2761_38841" x1="33.3679" y1="30.8882" x2="36.8639" y2="29.6475" gradientUnits="userSpaceOnUse">
<stop stop-color="#D33651" stop-opacity="0"/>
<stop offset="0.2899" stop-color="#D43650" stop-opacity="0.3265"/>
<stop offset="0.6542" stop-color="#D6364F"/>
</linearGradient>
<linearGradient id="paint3_linear_2761_38841" x1="43.6207" y1="30.8656" x2="47.0137" y2="29.6651" gradientUnits="userSpaceOnUse">
<stop stop-color="#D33651" stop-opacity="0"/>
<stop offset="0.2899" stop-color="#D43650" stop-opacity="0.3265"/>
<stop offset="0.6542" stop-color="#D6364F"/>
</linearGradient>
</defs>
</svg>
