<svg width="48" height="49" viewBox="0 0 48 49" fill="none" xmlns="http://www.w3.org/2000/svg">
<path d="M20.2825 33.5184C27.83 33.5184 31.9587 27.2647 31.9587 21.8509C31.9587 21.6759 31.9587 21.4984 31.9513 21.3234C32.7551 20.7416 33.4488 20.0211 34 19.1959C33.2491 19.527 32.4535 19.7452 31.6388 19.8434C32.4969 19.3305 33.1397 18.5234 33.4475 17.5722C32.6412 18.0498 31.7588 18.3852 30.8387 18.5634C30.2202 17.9047 29.4018 17.4683 28.5101 17.3219C27.6185 17.1754 26.7034 17.3271 25.9067 17.7534C25.1099 18.1796 24.476 18.8567 24.1031 19.6798C23.7301 20.5028 23.639 21.4259 23.8438 22.3059C22.2122 22.2241 20.616 21.8003 19.1588 21.0619C17.7016 20.3235 16.4159 19.287 15.385 18.0197C14.8617 18.9235 14.702 19.9927 14.9383 21.01C15.1746 22.0274 15.7893 22.9166 16.6575 23.4972C16.0069 23.4751 15.3707 23.3004 14.8 22.9872V23.0434C14.8011 23.9903 15.1291 24.9077 15.7286 25.6406C16.3281 26.3736 17.1622 26.877 18.09 27.0659C17.7378 27.163 17.374 27.2113 17.0087 27.2097C16.7512 27.2105 16.4942 27.1866 16.2413 27.1384C16.5035 27.9535 17.0141 28.6662 17.7016 29.1765C18.389 29.6869 19.2189 29.9695 20.075 29.9847C18.6207 31.1269 16.8243 31.7465 14.975 31.7434C14.6492 31.7448 14.3235 31.726 14 31.6872C15.8769 32.8838 18.0566 33.5191 20.2825 33.5184Z" fill="white"/>
<rect x="1" y="1.76855" width="46" height="46" rx="23" stroke="white" stroke-opacity="0.2" stroke-width="2"/>
</svg>
