<svg width="48" height="49" viewBox="0 0 48 49" fill="none" xmlns="http://www.w3.org/2000/svg">
<g clip-path="url(#clip0_5945_18523)">
<path d="M21.7094 24.7686C21.4343 24.7689 21.1706 24.8783 20.9761 25.0728C20.7816 25.2673 20.6722 25.531 20.6719 25.8061C20.6719 26.3798 21.1369 26.8561 21.7094 26.8448C21.9785 26.8355 22.2334 26.722 22.4205 26.5283C22.6075 26.3347 22.7121 26.0759 22.7121 25.8067C22.7121 25.5374 22.6075 25.2787 22.4205 25.085C22.2334 24.8914 21.9785 24.7779 21.7094 24.7686ZM24.0131 29.3273C24.4069 29.3273 25.7669 29.2798 26.4831 28.5636C26.5295 28.5107 26.5551 28.4427 26.5551 28.3723C26.5551 28.3019 26.5295 28.234 26.4831 28.1811C26.4583 28.1554 26.4286 28.135 26.3957 28.1211C26.3629 28.1072 26.3276 28.1 26.2919 28.1C26.2562 28.1 26.2209 28.1072 26.188 28.1211C26.1552 28.135 26.1254 28.1554 26.1006 28.1811C25.6594 28.6348 24.6931 28.7898 24.0131 28.7898C23.3319 28.7898 22.3781 28.6348 21.9244 28.1811C21.8996 28.1554 21.8698 28.135 21.837 28.1211C21.8041 28.1072 21.7688 28.1 21.7331 28.1C21.6974 28.1 21.6621 28.1072 21.6293 28.1211C21.5964 28.135 21.5667 28.1554 21.5419 28.1811C21.5162 28.2059 21.4959 28.2356 21.4819 28.2685C21.468 28.3013 21.4609 28.3366 21.4609 28.3723C21.4609 28.408 21.468 28.4433 21.4819 28.4762C21.4959 28.509 21.5162 28.5387 21.5419 28.5636C22.2469 29.2673 23.6069 29.3261 24.0131 29.3261V29.3273ZM25.2531 25.8186C25.2531 26.3911 25.7194 26.8561 26.2919 26.8561C26.8644 26.8561 27.3294 26.3798 27.3294 25.8186C27.3163 25.5522 27.2013 25.3011 27.0081 25.1172C26.815 24.9333 26.5585 24.8307 26.2919 24.8307C26.0252 24.8307 25.7687 24.9333 25.5756 25.1172C25.3825 25.3011 25.2675 25.5522 25.2544 25.8186H25.2531Z" fill="white"/>
<path d="M34 24.7686C34 27.4207 32.9464 29.9643 31.0711 31.8396C29.1957 33.715 26.6522 34.7686 24 34.7686C21.3478 34.7686 18.8043 33.715 16.9289 31.8396C15.0536 29.9643 14 27.4207 14 24.7686C14 22.1164 15.0536 19.5729 16.9289 17.6975C18.8043 15.8221 21.3478 14.7686 24 14.7686C26.6522 14.7686 29.1957 15.8221 31.0711 17.6975C32.9464 19.5729 34 22.1164 34 24.7686ZM29.215 23.3123C28.8212 23.3123 28.4625 23.4673 28.2 23.7186C27.1987 23.0023 25.825 22.5373 24.2987 22.4773L24.9662 19.3511L27.1388 19.8161C27.1483 20.0189 27.2172 20.2145 27.3368 20.3786C27.4564 20.5427 27.6216 20.668 27.8118 20.7391C28.0021 20.8102 28.209 20.8239 28.4069 20.7786C28.6048 20.7332 28.7851 20.6308 28.9254 20.4839C29.0656 20.337 29.1597 20.1523 29.196 19.9524C29.2322 19.7526 29.209 19.5466 29.1292 19.3598C29.0495 19.1731 28.9167 19.0138 28.7473 18.9018C28.5779 18.7898 28.3793 18.73 28.1762 18.7298C27.982 18.7305 27.7919 18.7857 27.6275 18.8891C27.463 18.9925 27.331 19.14 27.2463 19.3148L24.8238 18.8023C24.7911 18.7953 24.7575 18.7948 24.7246 18.8008C24.6918 18.8068 24.6605 18.8192 24.6325 18.8373C24.6033 18.8555 24.5785 18.88 24.5599 18.909C24.5413 18.9379 24.5294 18.9707 24.525 19.0048L23.785 22.4898C22.235 22.5373 20.8375 23.0023 19.8225 23.7298C19.56 23.4798 19.2025 23.3248 18.81 23.3248C18.4771 23.3243 18.1542 23.4381 17.8951 23.6471C17.636 23.8561 17.4565 24.1476 17.3866 24.4731C17.3166 24.7985 17.3605 25.1381 17.5108 25.4351C17.6611 25.7321 17.9088 25.9685 18.2125 26.1048C18.1875 26.2486 18.1762 26.3923 18.1762 26.5461C18.1762 28.7898 20.79 30.6161 24.0125 30.6161C27.2338 30.6161 29.8475 28.8023 29.8475 26.5461C29.8475 26.4036 29.835 26.2486 29.8113 26.1048C30.3125 25.8786 30.6712 25.3648 30.6712 24.7686C30.6712 23.9561 30.015 23.3123 29.215 23.3123Z" fill="white"/>
</g>
<rect x="1" y="1.76855" width="46" height="46" rx="23" stroke="white" stroke-opacity="0.2" stroke-width="2"/>
<defs>
<clipPath id="clip0_5945_18523">
<rect width="20" height="20" fill="white" transform="translate(14 14.7686)"/>
</clipPath>
</defs>
</svg>
