<svg width="48" height="49" viewBox="0 0 48 49" fill="none" xmlns="http://www.w3.org/2000/svg">
<g clip-path="url(#clip0_5945_18527)">
<path d="M30.9315 18.4023C29.6346 17.8071 28.2661 17.3824 26.8602 17.1386C26.8475 17.1364 26.8344 17.1383 26.8227 17.1439C26.8111 17.1495 26.8015 17.1585 26.7952 17.1698C26.619 17.4823 26.424 17.8911 26.2877 18.2111C24.7722 17.9811 23.2307 17.9811 21.7152 18.2111C21.5632 17.8546 21.3913 17.507 21.2002 17.1698C21.1938 17.1587 21.1842 17.1497 21.1726 17.1441C21.161 17.1385 21.1479 17.1366 21.1352 17.1386C19.729 17.3811 18.3602 17.8061 17.064 18.4023C17.0529 18.4065 17.0436 18.4145 17.0377 18.4248C14.4452 22.2986 13.734 26.0773 14.0827 29.8086C14.084 29.8261 14.0952 29.8436 14.109 29.8548C15.6186 30.9731 17.3072 31.8269 19.1027 32.3798C19.1154 32.3838 19.129 32.3837 19.1416 32.3794C19.1542 32.3751 19.1651 32.367 19.1727 32.3561C19.5577 31.8311 19.9002 31.2773 20.1952 30.6948C20.2014 30.6828 20.2035 30.6692 20.2012 30.6559C20.199 30.6426 20.1925 30.6304 20.1827 30.6211C20.1763 30.615 20.1686 30.6103 20.1602 30.6073C19.6217 30.4003 19.1001 30.1517 18.6002 29.8636C18.5862 29.8557 18.5759 29.8427 18.5712 29.8273C18.5666 29.812 18.568 29.7954 18.5752 29.7811C18.5795 29.7718 18.5859 29.7636 18.594 29.7573C18.699 29.6786 18.804 29.5961 18.904 29.5136C18.9128 29.5065 18.9234 29.5019 18.9346 29.5004C18.9459 29.4988 18.9573 29.5004 18.9677 29.5048C22.2415 30.9998 25.7852 30.9998 29.019 29.5048C29.0298 29.5001 29.0416 29.4985 29.0533 29.5C29.065 29.5016 29.076 29.5062 29.0852 29.5136C29.1852 29.5961 29.2902 29.6786 29.3952 29.7573C29.4037 29.7635 29.4106 29.7718 29.4151 29.7813C29.4197 29.7908 29.4218 29.8013 29.4213 29.8118C29.4208 29.8223 29.4177 29.8326 29.4123 29.8416C29.4068 29.8506 29.3993 29.8582 29.3902 29.8636C28.8915 30.1543 28.3692 30.4027 27.829 30.6061C27.8203 30.6092 27.8125 30.6142 27.806 30.6206C27.7996 30.6271 27.7946 30.6349 27.7915 30.6436C27.7886 30.6519 27.7874 30.6608 27.7881 30.6696C27.7887 30.6784 27.7911 30.687 27.7952 30.6948C28.0952 31.2761 28.439 31.8311 28.8165 32.3561C28.8241 32.367 28.835 32.3751 28.8476 32.3794C28.8602 32.3837 28.8738 32.3838 28.8865 32.3798C30.685 31.8286 32.3763 30.9747 33.8877 29.8548C33.8953 29.8496 33.9016 29.8427 33.9061 29.8347C33.9107 29.8267 33.9133 29.8177 33.914 29.8086C34.3315 25.4948 33.2152 21.7473 30.9565 18.4261C30.9542 18.4206 30.9508 18.4156 30.9465 18.4115C30.9422 18.4074 30.9371 18.4043 30.9315 18.4023ZM20.684 27.5361C19.6977 27.5361 18.8865 26.6311 18.8865 25.5211C18.8865 24.4098 19.6827 23.5048 20.684 23.5048C21.6927 23.5048 22.4965 24.4173 22.4815 25.5211C22.4815 26.6311 21.6852 27.5361 20.684 27.5361ZM27.329 27.5361C26.344 27.5361 25.5315 26.6311 25.5315 25.5211C25.5315 24.4098 26.3277 23.5048 27.329 23.5048C28.3377 23.5048 29.1427 24.4173 29.1265 25.5211C29.1265 26.6311 28.3377 27.5361 27.329 27.5361Z" fill="white"/>
</g>
<rect x="1" y="1.76855" width="46" height="46" rx="23" stroke="white" stroke-opacity="0.2" stroke-width="2"/>
<defs>
<clipPath id="clip0_5945_18527">
<rect width="20" height="20" fill="white" transform="translate(14 14.7686)"/>
</clipPath>
</defs>
</svg>
