<svg width="48" height="49" viewBox="0 0 48 49" fill="none" xmlns="http://www.w3.org/2000/svg">
<g clip-path="url(#clip0_5945_18520)">
<path d="M24 14.7686C18.475 14.7686 14 19.2436 14 24.7686C14 29.1936 16.8625 32.9311 20.8375 34.2561C21.3375 34.3436 21.525 34.0436 21.525 33.7811C21.525 33.5436 21.5125 32.7561 21.5125 31.9186C19 32.3811 18.35 31.3061 18.15 30.7436C18.0375 30.4561 17.55 29.5686 17.125 29.3311C16.775 29.1436 16.275 28.6811 17.1125 28.6686C17.9 28.6561 18.4625 29.3936 18.65 29.6936C19.55 31.2061 20.9875 30.7811 21.5625 30.5186C21.65 29.8686 21.9125 29.4311 22.2 29.1811C19.975 28.9311 17.65 28.0686 17.65 24.2436C17.65 23.1561 18.0375 22.2561 18.675 21.5561C18.575 21.3061 18.225 20.2811 18.775 18.9061C18.775 18.9061 19.6125 18.6436 21.525 19.9311C22.325 19.7061 23.175 19.5936 24.025 19.5936C24.875 19.5936 25.725 19.7061 26.525 19.9311C28.4375 18.6311 29.275 18.9061 29.275 18.9061C29.825 20.2811 29.475 21.3061 29.375 21.5561C30.0125 22.2561 30.4 23.1436 30.4 24.2436C30.4 28.0811 28.0625 28.9311 25.8375 29.1811C26.2 29.4936 26.5125 30.0936 26.5125 31.0311C26.5125 32.3686 26.5 33.4436 26.5 33.7811C26.5 34.0436 26.6875 34.3561 27.1875 34.2561C29.1728 33.586 30.8979 32.3102 32.12 30.6083C33.3421 28.9063 33.9997 26.8639 34 24.7686C34 19.2436 29.525 14.7686 24 14.7686Z" fill="white"/>
</g>
<rect x="1" y="1.76855" width="46" height="46" rx="23" stroke="white" stroke-opacity="0.2" stroke-width="2"/>
<defs>
<clipPath id="clip0_5945_18520">
<rect width="20" height="20" fill="white" transform="translate(14 14.7686)"/>
</clipPath>
</defs>
</svg>
